<svg width="58" height="20" viewBox="0 0 58 20" fill="none" xmlns="http://www.w3.org/2000/svg" aria-hidden="true"><path d="M50.3635 18.9904C50.6395 18.4167 52.3934 17.7903 52.2324 17.1698C52.4164 17.2517 53.1467 16.561 53.0374 15.9171C55.1363 14.4477 58 10.0161 58 10.0161C58 10.0161 56.3036 6.15833 54.13 5.07533C54.0725 5.15729 48.1151 -1.82082 47.7068 1.34037C48.2186 1.5277 48.3221 3.24884 48.8742 2.55806C49.2939 1.75606 50.2887 3.78741 50.6568 3.86937C50.3865 4.7182 51.2548 5.73687 51.8758 5.83053C52.7844 7.10671 54.13 8.3418 54.13 8.3418C54.13 8.3418 47.3963 7.55744 45.1594 8.86289C44.1933 8.29505 25.6081 7.85015 32.6236 9.02096C31.1572 9.98688 25.2516 8.65797 29.1676 8.4004C18.5984 8.14282 13.0263 7.32917 0.979278 10.8123C-2.42494 12.3402 4.08448 12.1236 4.77452 11.5967C4.87803 11.1342 4.90103 10.8474 5.37257 10.9177C5.52208 12.6446 9.75435 10.2855 10.2604 10.3674C17.0631 11.4797 31.4678 10.461 40.2601 11.9128C42.3532 11.7957 51.0305 10.9411 52.5141 10.9411C53.9977 10.9411 53.0202 11.6084 52.0139 12.3695C51.9794 12.3695 51.9736 12.4456 51.8758 12.3812C51.7723 14.3189 50.444 15.8408 48.9087 17.1287C48.0806 17.7844 49.2537 20.694 50.3635 18.9904Z" fill="#101214" stroke-width="1px" fill-opacity="1" stroke-opacity="1"></path></svg>