<svg width="32px" height="32px" id="icon-object-workflow" viewBox="0 0 32 30" fill="none" xmlns="http://www.w3.org/2000/svg" aria-hidden="true"><path d="M22.416 7H20C18.8954 7 18 7.89543 18 9V21C18 24.3137 15.3137 27 12 27H9.58396C8.8124 28.7659 7.05032 30 5 30C2.23858 30 0 27.7614 0 25C0 22.2386 2.23858 20 5 20C7.05032 20 8.8124 21.2341 9.58396 23H12C13.1046 23 14 22.1046 14 21V9C14 5.68629 16.6863 3 20 3H22.416C23.1876 1.2341 24.9497 0 27 0C29.7614 0 32 2.23858 32 5C32 7.76142 29.7614 10 27 10C24.9497 10 23.1876 8.7659 22.416 7Z" fill="#1868DB" stroke-width="1px" fill-opacity="1" stroke-opacity="1"></path></svg>