<svg width="32px" height="32px" id="icon-object-cog" viewBox="0 0 32 32" fill="none" xmlns="http://www.w3.org/2000/svg" aria-hidden="true"><path fill-rule="evenodd" clip-rule="evenodd" d="M12.4443 0H19.5554L21.7927 5.96613L28.0789 4.92051L31.6344 11.0789L27.5855 16.0005L31.6336 20.9211L28.078 27.0795L21.7927 26.034L19.5554 32H12.4443L10.2068 26.0334L3.9216 27.0789L0.366042 20.9205L4.41372 16.0005L0.365234 11.0795L3.92079 4.92108L10.2068 5.96668L12.4443 0ZM16.0003 22C19.314 22 22.0003 19.3137 22.0003 16C22.0003 12.6863 19.314 10 16.0003 10C12.6866 10 10.0003 12.6863 10.0003 16C10.0003 19.3137 12.6866 22 16.0003 22Z" fill="#1868DB" stroke-width="1px" fill-opacity="1" stroke-opacity="1"></path></svg>