<svg width="32px" id="icon-object-globe" height="32px" viewBox="0 0 32 32" fill="none" xmlns="http://www.w3.org/2000/svg" aria-hidden="true"><path fill-rule="evenodd" clip-rule="evenodd" d="M32 16C32 7.16345 24.8366 1.33914e-05 16 0C7.16347 0 0 7.16344 0 16C0 24.8366 7.16344 32 16 32C24.8366 32 32 24.8366 32 16ZM10.581 26.5722C10.6011 26.6284 10.6214 26.6845 10.642 26.7403C7.27482 25.0573 4.80972 21.8374 4.16592 18H9.04819C9.20644 21.2598 9.74831 24.2406 10.581 26.5722ZM13.0534 18C13.2081 20.8691 13.6881 23.3791 14.348 25.2268C14.7557 26.3685 15.1946 27.1508 15.5819 27.6095C15.7927 27.8591 15.9336 27.9535 16 27.9873C16.0664 27.9535 16.2073 27.8591 16.4181 27.6095C16.8054 27.1508 17.2443 26.3685 17.652 25.2268C18.3119 23.3791 18.7919 20.8691 18.9466 18L13.0534 18ZM18.9466 14L13.0534 14C13.2081 11.1309 13.6881 8.62094 14.348 6.77318C14.7557 5.63146 15.1946 4.84916 15.5819 4.3905C15.7927 4.14087 15.9336 4.04645 16 4.01268C16.0664 4.04645 16.2073 4.14088 16.4181 4.39049C16.8054 4.84916 17.2443 5.63146 17.652 6.77318C18.3119 8.62094 18.7919 11.1309 18.9466 14ZM22.9518 18C22.7936 21.2598 22.2517 24.2406 21.419 26.5722C21.3989 26.6284 21.3786 26.6845 21.358 26.7403C24.7252 25.0573 27.1903 21.8374 27.8341 18H22.9518ZM27.8341 14L22.9518 14C22.7936 10.7402 22.2517 7.75936 21.419 5.42783C21.3989 5.37157 21.3786 5.31551 21.358 5.25966C24.7252 6.9427 27.1903 10.1626 27.8341 14ZM9.04819 14L4.16592 14C4.80972 10.1626 7.27482 6.9427 10.642 5.25966C10.6214 5.31551 10.6011 5.37157 10.581 5.42783C9.74831 7.75936 9.20644 10.7402 9.04819 14Z" fill="#1868DB" stroke-width="1px" fill-opacity="1" stroke-opacity="1"></path></svg>