<svg width="46" height="26" viewBox="0 0 46 26" fill="none" xmlns="http://www.w3.org/2000/svg" aria-hidden="true"><path d="M27.8179 8.5621L28.9492 7.54226C28.9492 7.54226 29.1999 6.94045 28.9993 6.53364C28.8767 6.28288 28.6873 6.03769 28.4811 5.84822C28.0631 5.46928 27.5672 5.34664 27.3498 5.94291C27.322 5.92619 27.2774 5.92622 27.2384 5.89835C27.1604 6.65623 26.2241 6.69528 25.8842 7.25812C26.018 7.35285 25.8731 7.28036 25.8731 7.28036C25.9232 7.87663 25.3548 8.2166 25.3548 8.22217C24.6137 9.36457 23.2539 10.6407 22.5908 11.9949L22.6186 12.006L22.641 12.0283C22.8862 12.0506 22.5295 12.3849 22.4905 12.2512C21.7047 12.658 20.646 13.8896 20.4899 14.7589C20.6571 14.8703 20.5679 15.0208 20.5233 14.9539C19.9605 14.9149 15.4912 19.7742 17.8819 19.6739L18.0268 19.8411C18.3556 19.5848 20.6292 17.6177 20.6459 17.64C21.1029 17.8796 21.0193 15.7174 21.493 16.6982C23.9951 16.2301 27.0991 10.5125 27.0991 10.5125L27.1715 9.83268C27.1715 9.83268 28.0742 9.27539 27.8123 8.55652L27.8179 8.5621Z" fill="#FFFFFF" stroke-width="1px" fill-opacity="1" stroke-opacity="1"></path><path d="M8.85401 4.95098L8.60878 4.31569C8.60878 4.31569 9.15488 3.40732 8.59204 2.88906L9.12706 1.4625C9.12706 1.4625 9.07134 0.810485 8.70912 0.542998C8.48064 0.375818 8.202 0.242056 7.93451 0.175184C7.39396 0.0302949 6.89243 0.14737 6.97045 0.782652C6.93701 0.782652 6.89795 0.799313 6.8478 0.79374C7.12643 1.50147 6.31288 1.96401 6.27387 2.62159C6.43548 2.64388 6.55806 2.69403 6.4689 2.69403L6.26829 2.64948C6.58593 3.15659 5.88373 3.29032 6.49672 3.81972L6.2404 3.71938C6.10666 5.07911 5.4825 6.82894 5.52151 8.33913H5.55498C5.55498 8.33913 5.64414 8.71807 5.55498 8.61776C5.04229 9.34221 4.67449 10.9193 4.92526 11.7607C5.12588 11.783 2.79095 18.5148 4.86397 17.3278L5.07016 17.4114C5.24291 17.0325 5.3822 16.7149 5.87816 16.3861C5.85587 16.3192 5.90047 16.3247 5.68314 16.2802C5.65527 16.2579 5.594 16.2189 5.50484 16.2077C4.98101 16.1074 6.70848 13.0257 6.70848 13.0257C8.71464 11.4598 8.84843 4.95656 8.84843 4.95656L8.85401 4.95098Z" fill="#FFFFFF" stroke-width="1px" fill-opacity="1" stroke-opacity="1"></path><path d="M44.1735 17.8016C43.984 17.2722 43.6106 16.9267 43.1314 17.3503C43.1147 17.3224 43.0756 17.3001 43.0534 17.2555C42.6243 17.8852 41.7828 17.4728 41.2199 17.8128C41.2924 17.9577 41.1976 17.8295 41.1976 17.8295C40.958 18.3756 40.3004 18.409 40.3004 18.4146C39.1023 19.0722 37.3024 19.5459 36.082 20.4264L36.0987 20.4486L36.1098 20.4765C36.316 20.6103 35.8423 20.7384 35.8702 20.5991C34.9841 20.5824 33.4684 21.1675 32.9222 21.8529C33.017 22.0313 33.0672 21.5297 33.3792 22.1037C33.2009 22.1873 33.056 22.3545 32.8777 22.4214C32.7105 22.0313 32.8665 22.1204 32.8554 22.0424C32.3761 21.7415 26.1404 23.9037 28.2914 24.9458L28.3415 25.1631C28.7539 25.0907 29.6232 24.9235 29.5842 24.8399C29.3725 24.3551 31.6907 24.4331 31.6963 24.4665L32.8888 24.0374C35.3129 24.8065 40.7574 21.2511 40.7574 21.2511L41.1475 20.6883C41.1475 20.6883 42.2063 20.627 42.3177 19.8691L43.7945 19.5069C43.7945 19.5069 44.3016 19.0945 44.3128 18.6431C44.3239 18.3645 44.2737 18.0579 44.1846 17.796L44.1735 17.8016Z" fill="#FFFFFF" stroke-width="1px" fill-opacity="1" stroke-opacity="1"></path></svg>