<svg width="51" height="50" viewBox="0 0 51 50" fill="none" xmlns="http://www.w3.org/2000/svg" aria-hidden="true"><path d="M30.3513 23.6639C31.5684 22.8331 35.6575 18.0452 31.7445 19.1689C30.6929 20.0051 25.8724 26.4493 23.2247 29.7726C22.6428 28.4092 20.9719 26.9179 19.7495 26.1617C19.0074 25.4747 18.7085 26.6091 18.7085 26.6091C18.9167 26.9127 19.1356 27.392 19.6427 27.7754C20.2085 28.2015 20.2833 29.0855 21.2121 29.7619C24.4792 32.1319 23.0058 35.6202 26.1661 29.5754C27.2551 26.9232 29.9882 26.0605 30.3459 23.6639H30.3513Z" fill="#101214" stroke-width="1px" fill-opacity="1" stroke-opacity="1"></path><path d="M50.9995 23.467C51.0262 16.5808 49.8999 5.78014 42.3943 3.2291C47.5991 10.1845 50.754 21.3899 47.8553 30.0123C45.1702 43.6729 24.4417 51.3366 11.9501 43.4225C13.2313 44.6368 16.162 46.0163 17.961 46.5488C13.1886 47.582 2.45871 35.5564 10.0551 42.1018C-11.5009 14.6262 22.6267 -11.651 42.2715 12.0806C36.6983 1.31722 22.2263 -2.3629 13.3114 2.87232C-29.6403 36.808 44.5296 76.9961 50.9942 23.467H50.9995Z" fill="#101214" stroke-width="1px" fill-opacity="1" stroke-opacity="1"></path></svg>