<svg width="311px" height="15.29px" viewBox="0 0 311 16" fill="none" xmlns="http://www.w3.org/2000/svg"><g clip-path="url(#clip0_2380_3097)" stroke-width="1px" fill-opacity="1" stroke-opacity="1"><path d="M89.2393 7.06523C89.0084 6.81126 88.6621 6.83435 88.5004 7.1345L84.737 14.6384C84.5984 14.9385 84.8062 15.2848 85.1295 15.2848H90.3476C90.5092 15.2848 90.6708 15.1925 90.7401 15.0309C91.8945 12.6989 91.2018 9.16631 89.2393 7.06523Z" fill="#1868DB" stroke-width="1px" fill-opacity="1" stroke-opacity="1"></path><path d="M91.9879 0.231197C89.8869 3.55598 90.0254 7.22709 91.4107 9.99775C92.796 12.7684 93.8581 14.8695 93.9274 15.0311C93.9967 15.1927 94.1583 15.2851 94.3199 15.2851H99.538C99.8612 15.2851 100.092 14.9387 99.9305 14.6386C99.9305 14.6386 92.9115 0.600617 92.7268 0.254285C92.5882 -0.0689573 92.1957 -0.0920461 91.9879 0.231197Z" fill="#1868DB" stroke-width="1px" fill-opacity="1" stroke-opacity="1"></path><path d="M162.826 10.2168C162.826 8.02338 161.649 6.98439 158.37 6.26863C156.546 5.87612 156.107 5.46053 156.107 4.88331C156.107 4.16756 156.754 3.84431 157.954 3.84431C159.409 3.84431 160.841 4.283 162.203 4.9064V2.0203C161.256 1.53544 159.779 1.16602 158.047 1.16602C154.791 1.16602 153.106 2.57443 153.106 4.9064C153.106 6.7535 153.96 8.23118 157.331 8.87767C159.34 9.29326 159.755 9.61651 159.755 10.2861C159.755 10.9326 159.34 11.3482 157.908 11.3482C156.269 11.3482 154.306 10.794 153.037 10.0321V13.0567C154.052 13.5647 155.392 14.1188 157.885 14.1188C161.418 14.1188 162.826 12.5488 162.826 10.2168Z" fill="#1868DB" stroke-width="1px" fill-opacity="1" stroke-opacity="1"></path><path d="M198.337 1.35076V13.9341H201.016V4.3523L202.147 6.89206L205.934 13.9341H209.305V1.35076H206.626V9.478L205.61 7.12295L202.563 1.35076H198.337Z" fill="#1868DB" stroke-width="1px" fill-opacity="1" stroke-opacity="1"></path><path d="M181.321 1.35076H178.389V13.911H181.321V1.35076Z" fill="#1868DB" stroke-width="1px" fill-opacity="1" stroke-opacity="1"></path><path d="M174.994 10.2168C174.994 8.02338 173.817 6.98439 170.538 6.26863C168.714 5.87612 168.275 5.46053 168.275 4.88331C168.275 4.16756 168.922 3.84431 170.122 3.84431C171.577 3.84431 173.008 4.283 174.371 4.9064V2.0203C173.424 1.53544 171.946 1.16602 170.215 1.16602C166.959 1.16602 165.274 2.57443 165.274 4.9064C165.274 6.7535 166.128 8.23118 169.499 8.87767C171.508 9.29326 171.923 9.61651 171.923 10.2861C171.923 10.9326 171.508 11.3482 170.076 11.3482C168.437 11.3482 166.474 10.794 165.204 10.0321V13.0567C166.22 13.5647 167.559 14.1188 170.053 14.1188C173.609 14.1188 174.994 12.5488 174.994 10.2168Z" fill="#1868DB" stroke-width="1px" fill-opacity="1" stroke-opacity="1"></path><path d="M130.387 1.35076V13.9341H136.39L137.337 11.2097H133.319V1.35076H130.387Z" fill="#1868DB" stroke-width="1px" fill-opacity="1" stroke-opacity="1"></path><path d="M118.497 1.35085V4.07532H121.752V13.9342H124.684V4.07532H128.171V1.35085H118.497Z" fill="#1868DB" stroke-width="1px" fill-opacity="1" stroke-opacity="1"></path><path d="M114.225 1.35068H110.369L105.982 13.9341H109.33L109.954 11.8099C110.693 12.0177 111.478 12.1562 112.309 12.1562C113.117 12.1562 113.902 12.0408 114.664 11.8099L115.287 13.9341H118.635L114.225 1.35068ZM112.286 9.54719C111.732 9.54719 111.177 9.45484 110.669 9.3163L112.286 3.82118L113.902 9.3163C113.394 9.45484 112.863 9.54719 112.286 9.54719Z" fill="#1868DB" stroke-width="1px" fill-opacity="1" stroke-opacity="1"></path><path d="M146.78 1.35073H142.924L138.537 13.911H141.885L142.508 11.7869C143.247 11.9947 144.032 12.1332 144.864 12.1332C145.672 12.1332 146.457 12.0177 147.219 11.7869L147.842 13.911H151.19L146.78 1.35073ZM144.84 9.54724C144.286 9.54724 143.732 9.45489 143.224 9.31635L144.84 3.82123L146.457 9.31635C145.949 9.45489 145.395 9.54724 144.84 9.54724Z" fill="#1868DB" stroke-width="1px" fill-opacity="1" stroke-opacity="1"></path><path d="M191.849 1.35073H187.993L183.607 13.911H186.954L187.578 11.7869C188.317 11.9947 189.102 12.1332 189.933 12.1332C190.741 12.1332 191.526 12.0177 192.288 11.7869L192.911 13.911H196.259L191.849 1.35073ZM189.933 9.54724C189.379 9.54724 188.825 9.45489 188.317 9.31635L189.933 3.82123L191.549 9.31635C191.018 9.45489 190.487 9.54724 189.933 9.54724Z" fill="#1868DB" stroke-width="1px" fill-opacity="1" stroke-opacity="1"></path><path fill-rule="evenodd" clip-rule="evenodd" d="M222.713 3.64258L221.633 4.84467L223.383 6.79227H216.068C215.647 6.79227 215.305 7.17296 215.305 7.64201C215.305 8.11107 215.647 8.49175 216.068 8.49175H223.383L221.633 10.4405L222.713 11.6426L226.305 7.64201L222.713 3.64258Z" fill="#0065FF" stroke-width="1px" fill-opacity="1" stroke-opacity="1"></path></g><defs><clipPath id="clip0_2380_3097"><rect width="141.612" height="15.2851" fill="white" transform="translate(84.6934)"></rect></clipPath></defs></svg>