<svg xmlns="http://www.w3.org/2000/svg" width="63" height="22" viewBox="0 0 63 22" fill="none"><path d="M52.8512 9.42084C52.0061 9.75593 51.2171 9.77688 50.4335 9.82924C49.5823 9.88683 48.7618 9.77688 47.9409 9.53079C47.2187 9.31089 46.4608 9.32136 45.7397 9.46796C44.391 9.74546 43.0463 9.67216 41.691 9.53603C40.8446 9.45225 39.9828 9.40513 39.1368 9.44702C38.5503 9.47843 37.9748 9.6931 37.3679 9.82924C37.0858 9.24806 36.5614 9.21664 36.0012 9.36324C34.8446 9.66692 33.692 9.62504 32.5184 9.47843C31.8797 9.3999 31.2311 9.48367 30.6612 9.84494C30.5887 9.88683 30.5005 9.90254 30.4175 9.92348C29.9433 9.3423 29.3203 9.31089 28.6613 9.38942C27.6027 9.50985 26.5389 9.60933 25.4803 9.72975C24.7642 9.81353 24.0482 9.91301 23.3321 10.0073C22.6213 10.1067 21.9314 10.2848 21.1935 10.0282C20.2789 9.70881 19.3138 9.83971 18.364 9.89207C17.2793 9.9549 16.1949 10.1224 15.1203 10.0858C13.2825 10.0282 11.4557 10.1643 9.62351 10.2272C8.74634 10.2586 7.86907 10.2586 6.9972 10.3266C6.10976 10.3947 5.22245 10.5047 4.34559 10.6356C3.41164 10.7717 2.47784 10.9549 1.54918 11.1225C0.947357 11.2272 0.564592 11.667 0.254565 12.1278C0.166725 12.2587 0.328847 12.6461 0.474778 12.8346C0.933433 13.4315 1.56256 13.7614 2.30529 13.8975C3.97254 14.2064 5.6547 14.3007 7.33661 14.3164C8.84723 14.3321 10.3575 14.2274 11.8625 14.1174C13.6011 13.997 15.34 13.9813 17.0843 14.0232C18.4444 14.0598 19.8095 14.0022 21.1695 14.0127C22.4413 14.0179 23.7133 14.065 24.9903 14.0755C26.4022 14.086 27.8142 14.1017 29.2313 14.0755C31.2401 14.0441 33.2435 13.9708 35.2523 13.9341C36.6797 13.908 38.1072 13.887 39.5354 14.1226C40.3456 14.2588 41.1967 14.1855 42.0219 14.1226C43.2103 14.0336 44.389 14.1226 45.5727 14.1855C47.016 14.264 48.4594 14.3478 49.9079 14.4211C50.3232 14.442 50.7384 14.4211 51.1538 14.442C51.268 14.442 51.3824 14.5101 51.4967 14.5415C51.4399 14.6462 51.4092 14.7928 51.3211 14.8504C50.7979 15.196 50.259 15.5101 49.7358 15.8557C48.3475 16.7772 46.9592 17.6987 45.5761 18.6307C45.0426 18.992 44.7016 19.5313 44.3451 20.0549C44.1281 20.3743 44.2588 20.6727 44.3946 20.945C44.5251 21.2068 44.5937 21.5628 44.9573 21.6309C45.2066 21.678 45.4559 21.7251 45.7104 21.7461C46.9721 21.856 48.1441 21.5 49.3056 21.0759C50.1352 20.7722 50.9543 20.4319 51.7944 20.1491C52.147 20.0287 52.3748 19.8297 52.5503 19.5156C52.6742 19.2957 52.7823 19.0182 53.1103 19.3323C53.2561 19.4685 53.4533 19.4475 53.6189 19.2747C53.8621 19.0234 54.1417 18.7983 54.3849 18.5417C54.5504 18.3637 54.7216 18.3323 54.9604 18.3375C55.8586 18.3742 56.6049 18.0024 57.1842 17.327C57.5566 16.8924 58.0229 16.6201 58.5363 16.4526C59.1327 16.2589 59.6769 15.9866 60.1272 15.573C60.9554 14.8138 61.7472 14.0179 62.5337 13.2168C62.87 12.8713 62.8626 12.1487 62.5603 11.756C62.0183 11.0492 61.4503 10.3685 60.9238 9.65122C60.6423 9.26376 60.4333 8.81872 60.1776 8.40508C60.0733 8.23753 59.9688 8.01763 59.8077 7.94433C59.1786 7.65112 58.8084 7.10135 58.3656 6.60918C58.1833 6.40498 57.9905 6.17984 57.7566 6.05418C56.9974 5.64055 56.2279 5.24786 55.443 4.89182C55.2143 4.7871 54.9134 4.86041 54.6486 4.82899C54.5291 4.81328 54.3525 4.7714 54.3107 4.68762C53.945 3.9389 53.326 3.52526 52.547 3.3996C51.3577 3.20588 50.2712 2.70323 49.1436 2.32101C47.8445 1.8812 46.5454 1.44663 45.2514 0.985871C44.2537 0.629832 43.2304 0.430869 42.1816 0.347095C41.7351 0.310444 41.3879 0.498936 41.1917 0.839267C40.7683 1.588 40.6852 1.56182 41.1547 2.32625C41.2434 2.47286 41.3477 2.60899 41.4157 2.76606C41.6771 3.38389 42.2383 3.55144 42.7841 3.79753C43.7197 4.2164 44.6296 4.69286 45.5344 5.17456C46.7199 5.8081 47.8847 6.47305 49.0598 7.11706C49.6942 7.46786 50.3441 7.78202 50.9629 8.15376C51.5818 8.52551 52.1697 8.94438 52.8407 9.38942L52.8512 9.42084Z" fill="currentcolor" stroke-width="1px" fill-opacity="1" stroke-opacity="1"></path></svg>