<svg xmlns="http://www.w3.org/2000/svg" width="57" height="19" viewBox="0 0 57 19" fill="none"><path d="M47.5975 10.9419C46.8433 10.6448 46.1387 10.6263 45.439 10.5798C44.6789 10.5288 43.9461 10.6263 43.2126 10.8445C42.5674 11.0394 41.8906 11.0301 41.2469 10.9002C40.0427 10.6541 38.8418 10.7191 37.6313 10.8398C36.8754 10.9141 36.1057 10.9559 35.3502 10.9187C34.8265 10.8909 34.3128 10.7005 33.771 10.5798C33.5183 11.0951 33.05 11.123 32.5499 10.993C31.5174 10.7237 30.4881 10.7609 29.4399 10.8909C28.8694 10.9605 28.2902 10.8862 27.7818 10.5659C27.717 10.5288 27.6383 10.5148 27.5642 10.4963C27.14 11.0116 26.5836 11.0394 25.9952 10.9698C25.05 10.863 24.1001 10.7748 23.1549 10.668C22.5155 10.5938 21.8762 10.5056 21.2369 10.422C20.6022 10.3338 19.9864 10.1759 19.3271 10.4034C18.5099 10.6866 17.6482 10.5705 16.8001 10.5241C15.8315 10.4684 14.8633 10.3199 13.9036 10.3524C12.2623 10.4034 10.6311 10.2827 8.99497 10.227C8.21167 10.1992 7.42824 10.1992 6.64972 10.1388C5.8573 10.0785 5.06505 9.98096 4.28215 9.8649C3.44828 9.7442 2.6146 9.58171 1.78549 9.43315C1.24818 9.34031 0.906913 8.95034 0.630633 8.54181C0.552356 8.42575 0.697626 8.08221 0.828186 7.91508C1.23853 7.38584 1.80078 7.09337 2.46423 6.97267C3.95353 6.69876 5.45586 6.6152 6.95788 6.60127C8.30693 6.58734 9.65548 6.68019 10.9994 6.77768C12.5518 6.88446 14.1047 6.89839 15.6625 6.86125C16.8772 6.82875 18.0961 6.87982 19.3107 6.87053C20.4465 6.86589 21.5824 6.82411 22.7228 6.81482C23.9838 6.80554 25.2447 6.79161 26.5101 6.81482C28.304 6.84268 30.0931 6.90767 31.8869 6.94017C33.1616 6.96338 34.4364 6.98195 35.7121 6.77304C36.4358 6.65234 37.1958 6.71733 37.9326 6.77304C38.9938 6.85196 40.0465 6.77304 41.1037 6.71733C42.3927 6.6477 43.6817 6.57342 44.9754 6.50842C45.3463 6.48985 45.7171 6.50842 46.088 6.48985C46.19 6.48985 46.2923 6.4295 46.3944 6.40165C46.3438 6.3088 46.3166 6.17881 46.238 6.12774C45.7712 5.82134 45.2904 5.5428 44.8236 5.2364C43.5849 4.41933 42.3463 3.60226 41.1123 2.77591C40.6363 2.45558 40.3326 1.97741 40.0148 1.51317C39.8214 1.22998 39.9385 0.965363 40.0601 0.723957C40.1771 0.491836 40.2388 0.176151 40.5635 0.115799C40.7862 0.0740171 41.009 0.0322353 41.2362 0.0136655C42.3631 -0.0838255 43.4093 0.23186 44.446 0.607896C45.1865 0.877157 45.9175 1.17892 46.6674 1.42961C46.9821 1.53638 47.1853 1.71279 47.3416 1.99134C47.452 2.18632 47.5482 2.43237 47.8415 2.15383C47.9719 2.03312 48.1479 2.05169 48.2956 2.20489C48.5125 2.42773 48.7619 2.62735 48.9787 2.85483C49.1263 3.01267 49.2792 3.04053 49.4924 3.03589C50.2946 3.00339 50.9606 3.333 51.4771 3.93188C51.8091 4.3172 52.2252 4.5586 52.6834 4.70716C53.2158 4.87893 53.7014 5.12034 54.103 5.48709C54.8417 6.16024 55.5477 6.86589 56.2491 7.57618C56.549 7.88258 56.5415 8.52324 56.271 8.87142C55.7861 9.49815 55.278 10.1017 54.8069 10.7377C54.555 11.0812 54.3678 11.4758 54.139 11.8426C54.0456 11.9911 53.952 12.1861 53.808 12.2511C53.2459 12.5111 52.9145 12.9985 52.5185 13.4349C52.3555 13.616 52.183 13.8156 51.9739 13.927C51.2954 14.2938 50.6078 14.642 49.9064 14.9576C49.702 15.0505 49.4334 14.9855 49.1968 15.0134C49.0902 15.0273 48.9324 15.0644 48.8949 15.1387C48.5674 15.8026 48.0141 16.1693 47.3183 16.2807C46.2559 16.4525 45.285 16.8982 44.2775 17.2371C43.1168 17.627 41.9562 18.0124 40.8 18.4209C39.9086 18.7366 38.9945 18.913 38.0578 18.9873C37.659 19.0198 37.3491 18.8526 37.1744 18.5509C36.7973 17.887 36.723 17.9102 37.1433 17.2324C37.2227 17.1024 37.3159 16.9817 37.3768 16.8425C37.6111 16.2947 38.1124 16.1461 38.6002 15.9279C39.4363 15.5565 40.2495 15.1341 41.058 14.707C42.1175 14.1452 43.1586 13.5556 44.2088 12.9846C44.7758 12.6736 45.3565 12.395 45.9097 12.0654C46.4628 11.7358 46.9883 11.3644 47.5881 10.9698L47.5975 10.9419Z" fill="currentcolor" stroke-width="1px" fill-opacity="1" stroke-opacity="1"></path></svg>