<svg width="42" height="42" viewBox="0 0 44 43" fill="none" xmlns="http://www.w3.org/2000/svg" aria-hidden="true"><path d="M42.5503 18.9399H33.6003V23.9399H42.5503V18.9399Z" fill="url(#paint0_linear_8535_22452)" stroke-width="1px" fill-opacity="1" stroke-opacity="1"></path><path d="M24.4253 0.814941H19.4253V9.76494H24.4253V0.814941Z" fill="url(#paint1_linear_8535_22452)" stroke-width="1px" fill-opacity="1" stroke-opacity="1"></path><path d="M10.2503 18.9399H1.30029V23.9399H10.2503V18.9399Z" fill="url(#paint2_linear_8535_22452)" stroke-width="1px" fill-opacity="1" stroke-opacity="1"></path><path d="M24.4253 33.115H19.4253V42.065H24.4253V33.115Z" fill="url(#paint3_linear_8535_22452)" stroke-width="1px" fill-opacity="1" stroke-opacity="1"></path><path d="M29.8798 25.8055L26.2913 29.394L39.5053 42.6081L43.0939 39.0195L29.8798 25.8055Z" fill="#2684FF" stroke-width="1px" fill-opacity="1" stroke-opacity="1"></path><path d="M39.5054 0.268255L26.2937 13.4846L29.8829 17.0726L43.0946 3.8562L39.5054 0.268255Z" fill="#2684FF" stroke-width="1px" fill-opacity="1" stroke-opacity="1"></path><path d="M4.3393 0.268122L0.750732 3.85669L13.9648 17.0707L17.5534 13.4822L4.3393 0.268122Z" fill="#2684FF" stroke-width="1px" fill-opacity="1" stroke-opacity="1"></path><path d="M13.9618 25.7963L0.75 39.0127L4.33919 42.6006L17.5509 29.3843L13.9618 25.7963Z" fill="#2684FF" stroke-width="1px" fill-opacity="1" stroke-opacity="1"></path><defs><linearGradient id="paint0_linear_8535_22452" x1="33.6003" y1="21.4399" x2="42.5503" y2="21.4399" gradientUnits="userSpaceOnUse"><stop stop-color="#0052CC"></stop><stop offset="0.8" stop-color="#2684FF"></stop></linearGradient><linearGradient id="paint1_linear_8535_22452" x1="21.9253" y1="9.76494" x2="21.9253" y2="0.814941" gradientUnits="userSpaceOnUse"><stop stop-color="#0052CC"></stop><stop offset="0.8" stop-color="#2684FF"></stop></linearGradient><linearGradient id="paint2_linear_8535_22452" x1="10.2503" y1="-8.56007" x2="1.30029" y2="-8.56007" gradientUnits="userSpaceOnUse"><stop stop-color="#0052CC"></stop><stop offset="0.8" stop-color="#2684FF"></stop></linearGradient><linearGradient id="paint3_linear_8535_22452" x1="21.9253" y1="33.115" x2="21.9253" y2="42.065" gradientUnits="userSpaceOnUse"><stop stop-color="#0052CC"></stop><stop offset="0.8" stop-color="#2684FF"></stop></linearGradient></defs></svg>