<svg width="24" height="24" viewBox="0 0 24 25" fill="none" xmlns="http://www.w3.org/2000/svg" aria-hidden="true"><path d="M6.41935 17.5502C6.41935 14.5572 8.84568 12.1308 11.8387 12.1308C14.8317 12.1308 17.2581 14.5572 17.2581 17.5502V24.5179H6.41935V17.5502Z" fill="#1868DB" stroke-width="1px" fill-opacity="1" stroke-opacity="1"></path><path d="M16.4839 5.16311C16.4839 7.72856 14.4042 9.80827 11.8387 9.80827C9.27326 9.80827 7.19355 7.72856 7.19355 5.16311C7.19355 2.59765 9.27326 0.517944 11.8387 0.517944C14.4042 0.517944 16.4839 2.59765 16.4839 5.16311Z" fill="#1868DB" stroke-width="1px" fill-opacity="1" stroke-opacity="1"></path><path d="M17.1124 9.71719C17.4097 9.77692 17.7173 9.80827 18.0323 9.80827C20.5977 9.80827 22.6774 7.72856 22.6774 5.16311C22.6774 2.59765 20.5977 0.517944 18.0323 0.517944C17.7173 0.517944 17.4097 0.549287 17.1124 0.609022C18.168 1.83032 18.8065 3.42215 18.8065 5.16311C18.8065 6.90406 18.168 8.49589 17.1124 9.71719Z" fill="#1868DB" stroke-width="1px" fill-opacity="1" stroke-opacity="1"></path><path d="M6.56506 0.609022C5.50947 1.83032 4.87097 3.42215 4.87097 5.16311C4.87097 6.90406 5.50946 8.49589 6.56506 9.71719C6.26772 9.77692 5.9601 9.80827 5.64516 9.80827C3.07971 9.80827 1 7.72856 1 5.16311C1 2.59765 3.07971 0.517944 5.64516 0.517944C5.9601 0.517944 6.26772 0.549287 6.56506 0.609022Z" fill="#1868DB" stroke-width="1px" fill-opacity="1" stroke-opacity="1"></path><path d="M6.30986 12.1308C4.94089 13.5273 4.09677 15.4402 4.09677 17.5502V24.5179H1V16.0018C1 13.8639 2.73309 12.1308 4.87097 12.1308H6.30986Z" fill="#1868DB" stroke-width="1px" fill-opacity="1" stroke-opacity="1"></path><path d="M19.5806 24.5179V17.5502C19.5806 15.4402 18.7365 13.5273 17.3676 12.1308H18.8065C20.9443 12.1308 22.6774 13.8639 22.6774 16.0018V24.5179H19.5806Z" fill="#1868DB" stroke-width="1px" fill-opacity="1" stroke-opacity="1"></path></svg>