<svg width="24" height="24" viewBox="0 0 24 25" fill="none" xmlns="http://www.w3.org/2000/svg" aria-hidden="true"><path d="M0 9.94669L8.2428e-07 0.518066L9.42863 0.518066V3.94663L3.42856 3.94663L3.42856 9.94669H0Z" fill="#1868DB" stroke-width="1px" fill-opacity="1" stroke-opacity="1"></path><path d="M17.1429 12.5181C17.1429 15.3584 14.8404 17.661 12 17.661C9.15973 17.661 6.8572 15.3584 6.8572 12.5181C6.8572 9.6778 9.15973 7.37528 12 7.37528C14.8404 7.37528 17.1429 9.6778 17.1429 12.5181Z" fill="#1868DB" stroke-width="1px" fill-opacity="1" stroke-opacity="1"></path><path d="M24 24.5181V15.0895H20.5714V21.0895H14.5715V24.5181H24Z" fill="#1868DB" stroke-width="1px" fill-opacity="1" stroke-opacity="1"></path><path d="M14.5715 0.518068L24 0.518068V9.94669H20.5714V3.94663H14.5715V0.518068Z" fill="#1868DB" stroke-width="1px" fill-opacity="1" stroke-opacity="1"></path><path d="M8.66478e-05 24.5181H9.42862L9.42862 21.0895H3.42865V15.0895H8.66478e-05V24.5181Z" fill="#1868DB" stroke-width="1px" fill-opacity="1" stroke-opacity="1"></path></svg>