<svg width="40" height="25" viewBox="0 0 40 25" fill="none" xmlns="http://www.w3.org/2000/svg" aria-hidden="true"><path d="M23.632 8.42251L24.7544 7.4286C24.7544 7.4286 25.0032 6.84209 24.8041 6.44563C24.6825 6.20123 24.4945 5.96228 24.29 5.77762C23.8753 5.40832 23.3832 5.28879 23.1675 5.86991C23.1399 5.85362 23.0957 5.85364 23.057 5.82648C22.9796 6.5651 22.0506 6.60315 21.7133 7.15168C21.846 7.24401 21.7023 7.17336 21.7023 7.17336C21.752 7.75447 21.1881 8.0858 21.1881 8.09123C20.4527 9.20458 19.1035 10.4483 18.4456 11.768L18.4732 11.7788L18.4954 11.8006C18.7387 11.8223 18.3848 12.1482 18.3461 12.0178C17.5665 12.4143 16.5159 13.6145 16.3611 14.4618C16.527 14.5704 16.4385 14.717 16.3943 14.6518C15.8358 14.6138 11.4014 19.3496 13.7734 19.2519L13.9172 19.4148C14.2434 19.165 16.4993 17.2479 16.5159 17.2696C16.9693 17.5031 16.8863 15.3959 17.3563 16.3517C19.8389 15.8955 22.9187 10.3234 22.9187 10.3234L22.9906 9.66079C22.9906 9.66079 23.8863 9.11767 23.6264 8.41708L23.632 8.42251Z" fill="#101214" stroke-width="1px" fill-opacity="1" stroke-opacity="1"></path><path d="M4.81616 4.90336L4.57284 4.28422C4.57284 4.28422 5.11469 3.39894 4.55624 2.89385L5.08709 1.50356C5.08709 1.50356 5.03179 0.868118 4.6724 0.60743C4.4457 0.444501 4.16923 0.314139 3.90383 0.248967C3.3675 0.107761 2.86988 0.22186 2.94729 0.840992C2.91411 0.840992 2.87536 0.857229 2.82559 0.851798C3.10205 1.54153 2.29484 1.99232 2.25614 2.63318C2.41649 2.6549 2.53811 2.70378 2.44965 2.70378L2.2506 2.66036C2.56577 3.15458 1.86904 3.28491 2.47725 3.80085L2.22293 3.70307C2.09023 5.02823 1.47094 6.73358 1.50964 8.20537H1.54285C1.54285 8.20537 1.63132 8.57468 1.54285 8.47692C1.03416 9.18295 0.669234 10.7199 0.918048 11.54C1.1171 11.5617 -1.19963 18.1224 0.857235 16.9656L1.06181 17.047C1.23322 16.6777 1.37142 16.3682 1.86352 16.0478C1.8414 15.9826 1.88565 15.988 1.67001 15.9445C1.64237 15.9228 1.58157 15.8848 1.49311 15.8739C0.973362 15.7762 2.68736 12.7729 2.68736 12.7729C4.67788 11.2467 4.81063 4.9088 4.81063 4.9088L4.81616 4.90336Z" fill="#101214" stroke-width="1px" fill-opacity="1" stroke-opacity="1"></path><path d="M39.8603 17.4274C39.6723 16.9115 39.3019 16.5748 38.8264 16.9875C38.8098 16.9604 38.7711 16.9386 38.749 16.8952C38.3232 17.5089 37.4883 17.107 36.9298 17.4383C37.0017 17.5795 36.9077 17.4546 36.9077 17.4546C36.6699 17.9868 36.0175 18.0194 36.0175 18.0248C34.8287 18.6657 33.0428 19.1273 31.8319 19.9854L31.8485 20.0071L31.8595 20.0343C32.0641 20.1646 31.5942 20.2895 31.6218 20.1538C30.7427 20.1375 29.2387 20.7077 28.6968 21.3757C28.7908 21.5495 28.8406 21.0607 29.1503 21.6201C28.9733 21.7016 28.8296 21.8645 28.6526 21.9297C28.4868 21.5495 28.6415 21.6364 28.6305 21.5604C28.155 21.2671 21.9678 23.3744 24.1021 24.39L24.1519 24.6018C24.561 24.5312 25.4236 24.3682 25.3849 24.2867C25.1747 23.8142 27.4749 23.8903 27.4804 23.9229L28.6637 23.5047C31.0689 24.2542 36.4709 20.7892 36.4709 20.7892L36.8579 20.2407C36.8579 20.2407 37.9085 20.181 38.0191 19.4423L39.4843 19.0893C39.4843 19.0893 39.9875 18.6874 39.9986 18.2475C40.0096 17.9759 39.9598 17.6772 39.8713 17.422L39.8603 17.4274Z" fill="#101214" stroke-width="1px" fill-opacity="1" stroke-opacity="1"></path></svg>