<svg width="43" height="20" viewBox="0 0 43 20" fill="none" xmlns="http://www.w3.org/2000/svg" aria-hidden="true"><path d="M41.1672 6.20799C29.1522 -1.68807 19.1878 -0.0992864 12.5988 1.16576C9.10339 0.0506007 -6.62876 8.95992 3.16787 6.59171C7.3767 3.10833 21.6519 1.39363 29.518 4.72712C31.8203 2.91049 46.5871 12.3833 41.1612 6.20799H41.1672Z" fill="#101214" stroke-width="1px" fill-opacity="1" stroke-opacity="1"></path><path d="M34.6504 11.8079C29.9799 7.55705 23.1151 8.00677 20.2852 8.34252C22.5635 6.96356 16.5019 7.59904 15.5187 8.30051C16.478 8.24055 15.9745 8.85811 15.1771 8.92406C14.9252 7.26931 4.39719 11.1483 7.26304 13.1508C8.54008 12.4853 9.17553 13.0789 9.28944 11.7599C9.93096 13.3247 11.244 11.0884 11.6816 10.9145C12.6169 11.2203 12.593 11.598 13.8101 10.6927C15.4408 10.6927 17.773 11.1424 20.513 10.6328C24.3321 10.5069 26.4066 11.688 29.5662 11.9937C30.8972 12.4854 37.5462 15.627 34.6624 11.8199L34.6504 11.8079Z" fill="#101214" stroke-width="1px" fill-opacity="1" stroke-opacity="1"></path><path d="M28.9065 17.8751C27.0359 16.2983 24.6736 15.369 21.3641 15.5788C22.7551 16.736 21.4541 16.706 20.5668 16.1484C22.3295 14.8773 16.7837 15.1892 18.2106 16.2803C17.8389 16.5441 17.4252 16.3822 17.707 16.0824C15.6385 15.1412 9.31332 19.7457 14.4574 18.7505C14.2176 17.9351 15.1289 19.9256 15.8064 17.977C16.5978 18.5166 16.3459 18.8104 17.0414 18.061C17.7728 18.109 19.2118 19.0083 20.6807 18.4327C22.7731 17.9411 23.5346 19.7757 25.1054 18.7025C26.0407 19.5059 30.5013 20.3512 28.8945 17.8691L28.9065 17.8751Z" fill="#101214" stroke-width="1px" fill-opacity="1" stroke-opacity="1"></path></svg>